# xmcd
#
# Track frame offsets:
#	150
#	20517
#	33740
#	42850
#	59005
#	74327
#	87352
#	104687
#	118787
#	130150
#
# Disc length: 2002 seconds
#
# Revision: 0
# Processed by: cddbd v1.4PL0 Copyright (c) Steve Scherf et al.
# Submitted via: EasyCDDAExtractor 4.6.9.1
#
DISCID=9307d00a
DTITLE=Marcel Boudreau - Aimes-Tu La Vies
DYEAR=1900
DGENRE=
TTITLE0=Aimes-Tu La Vies
TTITLE1=Tu M'as Tout Pris
TTITLE2=Fini Les Bars
TTITLE3=Maman La Plus Belle Femme Au Monde
TTITLE4=Dis-Moi
TTITLE5=Je Suis Seule Depuis Mon Enfance
TTITLE6=Le Champion Albert Boucher
TTITLE7=Les Enfants Egares
TTITLE8=Tu Cour
TTITLE9=Conte De Fee
EXTD=
EXTT0=
EXTT1=
EXTT2=
EXTT3=
EXTT4=
EXTT5=
EXTT6=
EXTT7=
EXTT8=
EXTT9=
PLAYORDER=
